<svg width="106" height="98" viewBox="0 0 106 98" fill="none" xmlns="http://www.w3.org/2000/svg">
<path d="M15.5609 59.5807C14.9849 60.501 8.17046 60.531 4.83525 60.4309L4.48631 61.6714L15.3992 61.7222M15.5609 59.5807C16.2809 58.4304 17.0681 41.9217 31.0955 32.4811C42.3174 24.9286 57.2797 23.5906 63.3581 23.8657C68.5915 24.6089 80.6085 27.2269 86.8099 31.7536C89.2845 32.6803 95.27 34.3108 99.4147 33.4181C99.5581 33.5237 99.7001 33.6898 99.7801 33.9072M15.5609 59.5807L19.0639 58.9839L99.7801 33.9072M15.3992 61.7222C15.2699 63.4354 20.4836 67.7407 23.1067 69.6792C31.6084 76.5038 44.2859 76.7751 49.5619 76.0576C66.1823 74.7217 78.0836 61.2975 81.768 58.6669C84.7156 56.5624 94.0486 42.8775 98.3467 36.2981C99.7983 35.283 99.9763 34.4407 99.7801 33.9072M15.3992 61.7222L16.3746 61.3608M17.35 60.9994L16.3746 61.3608M24.3247 58.7881C30.154 63.0661 43.8329 71.4965 51.914 70.9935M24.3247 58.7881L16.3746 61.3608M24.3247 58.7881L40.8593 53.5973M40.8593 53.5973C45.8473 58.5652 58.7718 67.8777 70.566 65.3841M40.8593 53.5973L65.7246 45.7332L69.0386 44.8021L81.0896 41.4164M31.1993 55.3045C33.1149 48.301 39.2177 33.0251 48.3049 27.9495M45.686 51.0317C46.287 45.684 50.7076 33.5878 63.581 27.9854M65.2548 45.1045C66.0554 39.6485 69.4289 28.943 76.5179 29.7692M81.0896 41.4164C82.2276 42.6683 85.0523 45.2399 87.2472 45.5104M81.0896 41.4164L99.7801 33.9072M55.5419 49.668C59.257 52.6886 68.6143 58.7719 76.3219 58.9399" stroke="#BF9B30"/>
</svg>
