<svg width="88" height="50" viewBox="0 0 88 50" fill="none" xmlns="http://www.w3.org/2000/svg">
<path d="M77.3327 8.08422C78.2197 8.27001 83.4398 4.02593 85.939 1.88067L86.8081 2.39846L78.4965 9.25375M77.3327 8.08422C76.2238 7.85198 67.6028 -1.45112 52.3012 1.72028C40.0599 4.2574 27.9803 12.8212 23.4706 16.7859C19.8339 20.4999 11.9259 29.5691 9.38765 36.1334C7.94751 38.231 4.16728 42.9418 0.56752 45.0043C0.509279 45.1566 0.48142 45.344 0.525944 45.523M77.3327 8.08422L74.3668 9.92092L0.525944 45.523M78.4965 9.25375C79.4275 10.1894 77.5362 16.0047 76.4741 18.7954C73.295 28.1619 63.7425 36.2516 59.3636 39.1256C46.0184 48.7276 30.4057 48.2057 26.3132 48.9491C23.0393 49.5439 9.26186 47.2609 2.7824 46.0452C1.18043 46.3507 0.635211 45.9623 0.525944 45.523M78.4965 9.25375L77.5758 9.64931M76.6551 10.0449L77.5758 9.64931M70.2529 13.095C67.8782 19.2791 61.5242 32.8362 55.1068 37.5919M70.2529 13.095L77.5758 9.64931M70.2529 13.095L55.1006 20.356M55.1006 20.356C53.7036 26.4233 48.3545 40.0321 38.1336 45.9287M55.1006 20.356L32.2858 31.241L29.3019 32.7612L18.4514 38.2892M63.3092 15.3275C58.4437 12.37 46.3609 7.12287 36.9536 9.79454M50.1672 21.8524C47.1102 19.0552 37.8572 14.6427 25.3017 19.3698M32.3393 30.5742C29.0772 27.8376 21.2996 23.5953 16.2858 28.5191M18.4514 38.2892C18.1903 39.7438 17.2817 43.0363 15.7365 44.5694M18.4514 38.2892L0.525944 45.523M41.9758 27.2073C40.6052 31.3231 36.4124 40.7848 30.6061 45.705" stroke="#BF9B30"/>
</svg>
